<mxfile host="app.diagrams.net" modified="2022-04-01T13:02:35.560Z" agent="5.0 (X11)" etag="MbroyJ2EQNlwdoNeZg6l" version="17.4.0" type="github">
  <diagram id="-EjmSd40tJQCpScmzr5-" name="Page-1">
    <mxGraphModel dx="796" dy="481" grid="1" gridSize="10" guides="1" tooltips="1" connect="1" arrows="1" fold="1" page="1" pageScale="1" pageWidth="827" pageHeight="1169" math="0" shadow="0">
      <root>
        <mxCell id="0" />
        <mxCell id="1" parent="0" />
        <mxCell id="Tj6EyV-sqR-DG9TZjeBj-1" value="" style="whiteSpace=wrap;html=1;" vertex="1" parent="1">
          <mxGeometry x="70" y="120" width="730" height="1000" as="geometry" />
        </mxCell>
        <mxCell id="Tj6EyV-sqR-DG9TZjeBj-2" value="se logger" style="ellipse;whiteSpace=wrap;html=1;" vertex="1" parent="1">
          <mxGeometry x="310" y="160" width="140" height="70" as="geometry" />
        </mxCell>
        <mxCell id="Tj6EyV-sqR-DG9TZjeBj-3" value="gérer les stocks" style="ellipse;whiteSpace=wrap;html=1;" vertex="1" parent="1">
          <mxGeometry x="520" y="160" width="140" height="70" as="geometry" />
        </mxCell>
        <mxCell id="Tj6EyV-sqR-DG9TZjeBj-4" value="convertir les unités de mesure" style="ellipse;whiteSpace=wrap;html=1;" vertex="1" parent="1">
          <mxGeometry x="220" y="330" width="140" height="70" as="geometry" />
        </mxCell>
        <mxCell id="Tj6EyV-sqR-DG9TZjeBj-5" value="récupérer du matériel de brassage&lt;br&gt;" style="ellipse;whiteSpace=wrap;html=1;" vertex="1" parent="1">
          <mxGeometry x="220" y="430" width="140" height="70" as="geometry" />
        </mxCell>
        <mxCell id="Tj6EyV-sqR-DG9TZjeBj-6" value="utiliser une app téléphone" style="ellipse;whiteSpace=wrap;html=1;" vertex="1" parent="1">
          <mxGeometry x="150" y="930" width="140" height="70" as="geometry" />
        </mxCell>
        <mxCell id="Tj6EyV-sqR-DG9TZjeBj-7" value="créer une recette" style="ellipse;whiteSpace=wrap;html=1;" vertex="1" parent="1">
          <mxGeometry x="400" y="260" width="140" height="70" as="geometry" />
        </mxCell>
        <mxCell id="Tj6EyV-sqR-DG9TZjeBj-8" value="s&#39;inscrire à une newsletter" style="ellipse;whiteSpace=wrap;html=1;" vertex="1" parent="1">
          <mxGeometry x="400" y="350" width="140" height="70" as="geometry" />
        </mxCell>
        <mxCell id="Tj6EyV-sqR-DG9TZjeBj-9" value="" style="group" vertex="1" connectable="0" parent="1">
          <mxGeometry y="900" width="60" height="105" as="geometry" />
        </mxCell>
        <mxCell id="Tj6EyV-sqR-DG9TZjeBj-10" value="Actor" style="shape=umlActor;verticalLabelPosition=bottom;verticalAlign=top;html=1;" vertex="1" parent="Tj6EyV-sqR-DG9TZjeBj-9">
          <mxGeometry x="10" y="10" width="30" height="60" as="geometry" />
        </mxCell>
        <mxCell id="Tj6EyV-sqR-DG9TZjeBj-11" value="Visiteur" style="text;html=1;resizable=0;autosize=1;align=center;verticalAlign=middle;points=[];fillColor=none;strokeColor=none;rounded=0;" vertex="1" parent="Tj6EyV-sqR-DG9TZjeBj-9">
          <mxGeometry y="85" width="60" height="20" as="geometry" />
        </mxCell>
        <mxCell id="Tj6EyV-sqR-DG9TZjeBj-12" value="échanger sur un forum&lt;br&gt;" style="ellipse;whiteSpace=wrap;html=1;" vertex="1" parent="1">
          <mxGeometry x="160" y="820" width="140" height="70" as="geometry" />
        </mxCell>
        <mxCell id="Tj6EyV-sqR-DG9TZjeBj-13" value="utiliser un calendrier de fermentation" style="ellipse;whiteSpace=wrap;html=1;" vertex="1" parent="1">
          <mxGeometry x="414" y="530" width="140" height="70" as="geometry" />
        </mxCell>
        <mxCell id="Tj6EyV-sqR-DG9TZjeBj-14" value="ajuster les densités" style="ellipse;whiteSpace=wrap;html=1;" vertex="1" parent="1">
          <mxGeometry x="220" y="550" width="140" height="70" as="geometry" />
        </mxCell>
        <mxCell id="Tj6EyV-sqR-DG9TZjeBj-15" value="partager mes recettes" style="ellipse;whiteSpace=wrap;html=1;" vertex="1" parent="1">
          <mxGeometry x="554" y="270" width="140" height="70" as="geometry" />
        </mxCell>
        <mxCell id="Tj6EyV-sqR-DG9TZjeBj-16" value="avoir un tableau de bord&lt;br&gt;" style="ellipse;whiteSpace=wrap;html=1;" vertex="1" parent="1">
          <mxGeometry x="220" y="250" width="140" height="70" as="geometry" />
        </mxCell>
        <mxCell id="Tj6EyV-sqR-DG9TZjeBj-17" value="acheter des matières premières&lt;br&gt;" style="ellipse;whiteSpace=wrap;html=1;" vertex="1" parent="1">
          <mxGeometry x="400" y="430" width="140" height="70" as="geometry" />
        </mxCell>
        <mxCell id="Tj6EyV-sqR-DG9TZjeBj-18" value="avoir un journal de brassage" style="ellipse;whiteSpace=wrap;html=1;" vertex="1" parent="1">
          <mxGeometry x="570" y="520" width="140" height="70" as="geometry" />
        </mxCell>
        <mxCell id="Tj6EyV-sqR-DG9TZjeBj-19" value="calculer les volumes à l&#39;avance" style="ellipse;whiteSpace=wrap;html=1;" vertex="1" parent="1">
          <mxGeometry x="554" y="370" width="140" height="70" as="geometry" />
        </mxCell>
        <mxCell id="Tj6EyV-sqR-DG9TZjeBj-20" value="créer un profil" style="ellipse;whiteSpace=wrap;html=1;" vertex="1" parent="1">
          <mxGeometry x="160" y="160" width="140" height="70" as="geometry" />
        </mxCell>
        <mxCell id="Tj6EyV-sqR-DG9TZjeBj-21" value="gérer mes coûts" style="ellipse;whiteSpace=wrap;html=1;" vertex="1" parent="1">
          <mxGeometry x="414" y="620" width="140" height="70" as="geometry" />
        </mxCell>
        <mxCell id="Tj6EyV-sqR-DG9TZjeBj-22" value="gérer les équipements de brassage&lt;br&gt;" style="ellipse;whiteSpace=wrap;html=1;" vertex="1" parent="1">
          <mxGeometry x="410" y="710" width="140" height="70" as="geometry" />
        </mxCell>
        <mxCell id="Tj6EyV-sqR-DG9TZjeBj-23" value="" style="group" vertex="1" connectable="0" parent="1">
          <mxGeometry y="200" width="60" height="120" as="geometry" />
        </mxCell>
        <mxCell id="Tj6EyV-sqR-DG9TZjeBj-24" value="Actor" style="shape=umlActor;verticalLabelPosition=bottom;verticalAlign=top;html=1;" vertex="1" parent="Tj6EyV-sqR-DG9TZjeBj-23">
          <mxGeometry x="15" width="30" height="60" as="geometry" />
        </mxCell>
        <mxCell id="Tj6EyV-sqR-DG9TZjeBj-25" value="User ++" style="text;html=1;resizable=0;autosize=1;align=center;verticalAlign=middle;points=[];fillColor=none;strokeColor=none;rounded=0;" vertex="1" parent="Tj6EyV-sqR-DG9TZjeBj-23">
          <mxGeometry y="100" width="60" height="20" as="geometry" />
        </mxCell>
        <mxCell id="Tj6EyV-sqR-DG9TZjeBj-26" value="Appli Bière&lt;br&gt;" style="text;html=1;resizable=0;autosize=1;align=center;verticalAlign=middle;points=[];fillColor=none;strokeColor=none;rounded=0;" vertex="1" parent="1">
          <mxGeometry x="445" y="140" width="70" height="20" as="geometry" />
        </mxCell>
        <mxCell id="Tj6EyV-sqR-DG9TZjeBj-27" value="suivre ma fermentation&lt;br&gt;" style="ellipse;whiteSpace=wrap;html=1;" vertex="1" parent="1">
          <mxGeometry x="590" y="630" width="140" height="70" as="geometry" />
        </mxCell>
        <mxCell id="Tj6EyV-sqR-DG9TZjeBj-28" value="connecter des objets" style="ellipse;whiteSpace=wrap;html=1;" vertex="1" parent="1">
          <mxGeometry x="580" y="730" width="140" height="70" as="geometry" />
        </mxCell>
      </root>
    </mxGraphModel>
  </diagram>
</mxfile>
